<svg width="93" height="100" viewBox="0 0 93 100" fill="none" xmlns="http://www.w3.org/2000/svg">
<g id="Group 194">
<path id="Union" fill-rule="evenodd" clip-rule="evenodd" d="M12.0803 21.6904C12.8299 21.4308 13.367 20.73 13.367 19.9064C13.367 18.8616 12.5029 18.0146 11.4369 18.0146C10.371 18.0146 9.50684 18.8616 9.50684 19.9064C9.50684 20.73 10.0439 21.4308 10.7935 21.6904V41.3459H12.0803V21.6904Z" fill="white"/>
<path id="Union_2" fill-rule="evenodd" clip-rule="evenodd" d="M47.4648 10.9195C49.6847 10.3595 51.3249 8.38442 51.3249 6.03384C51.3249 3.2478 49.0206 0.989258 46.1781 0.989258C43.3356 0.989258 41.0312 3.2478 41.0312 6.03384C41.0312 8.60634 42.9959 10.7291 45.5347 11.0394V28.7345H47.4648V10.9195Z" fill="white"/>
<path id="Union_3" fill-rule="evenodd" clip-rule="evenodd" d="M82.8494 19.2759H78.9893V23.0593H80.276V42.6071H81.5627V23.0593H82.8494V19.2759Z" fill="white"/>
<path id="Subtract" fill-rule="evenodd" clip-rule="evenodd" d="M34.959 27.752C31.5653 29.553 29.451 33.0316 29.451 36.8142V37.3461C29.451 37.8478 29.4876 38.341 29.5583 38.8235H14.4087C9.56968 38.8235 5.64685 42.6684 5.64685 47.4113V47.6515H4.88095C2.46142 47.6515 0.5 49.574 0.5 51.9454V66.0582C0.5 68.4297 2.46142 70.3521 4.88095 70.3521H5.64685V82.5733C5.64685 87.3162 9.56968 91.1611 14.4087 91.1611H31.3811V99.9891H61.6188V91.1611H78.5912C83.4302 91.1611 87.3531 87.3162 87.3531 82.5733V70.3521H88.119C90.5385 70.3521 92.4999 68.4297 92.4999 66.0583V51.9454C92.4999 49.574 90.5385 47.6515 88.119 47.6515H87.3531V47.4113C87.3531 42.6684 83.4302 38.8235 78.5912 38.8235H62.7983C62.869 38.341 62.9055 37.8478 62.9055 37.3461V36.8142C62.9055 33.0316 60.7912 29.553 57.3975 27.752L51.1845 24.4548C48.0612 22.7973 44.2953 22.7973 41.172 24.4548L34.959 27.752ZM69.719 75.7032H23.2809V80.8559H69.719V75.7032ZM66.444 65.3077C70.855 65.3077 74.4308 61.8029 74.4308 57.4796C74.4308 53.1562 70.855 49.6515 66.444 49.6515C62.033 49.6515 58.4572 53.1562 58.4572 57.4796C58.4572 61.8029 62.033 65.3077 66.444 65.3077ZM66.444 67.884C72.3067 67.884 77.0594 63.2258 77.0594 57.4796C77.0594 51.7334 72.3067 47.0751 66.444 47.0751C60.5813 47.0751 55.8286 51.7334 55.8286 57.4796C55.8286 63.2258 60.5813 67.884 66.444 67.884ZM34.5427 57.4796C34.5427 61.8029 30.9669 65.3077 26.5559 65.3077C22.1449 65.3077 18.5691 61.8029 18.5691 57.4796C18.5691 53.1562 22.1449 49.6515 26.5559 49.6515C30.9669 49.6515 34.5427 53.1562 34.5427 57.4796ZM37.1713 57.4796C37.1713 63.2258 32.4186 67.884 26.5559 67.884C20.6932 67.884 15.9405 63.2258 15.9405 57.4796C15.9405 51.7334 20.6932 47.0751 26.5559 47.0751C32.4186 47.0751 37.1713 51.7334 37.1713 57.4796ZM70.6258 57.1643C70.6258 59.6021 68.6095 61.5783 66.1223 61.5783C63.6351 61.5783 61.6188 59.6021 61.6188 57.1643C61.6188 54.7265 63.6351 52.7503 66.1223 52.7503C68.6095 52.7503 70.6258 54.7265 70.6258 57.1643ZM32.6678 56.849C32.6678 59.8092 30.2195 62.2089 27.1993 62.2089C24.1791 62.2089 21.7308 59.8092 21.7308 56.849C21.7308 53.8889 24.1791 51.4892 27.1993 51.4892C30.2195 51.4892 32.6678 53.8889 32.6678 56.849ZM30.0944 54.642C30.0944 55.3385 29.5183 55.9032 28.8077 55.9032C28.097 55.9032 27.521 55.3385 27.521 54.642C27.521 53.9455 28.097 53.3809 28.8077 53.3809C29.5183 53.3809 30.0944 53.9455 30.0944 54.642Z" fill="white"/>
</g>
</svg>
