<svg width="216" height="28" viewBox="0 0 216 28" fill="none" xmlns="http://www.w3.org/2000/svg">
<g id="Long_Logo">
<path id="Vector" d="M2.78949 18.7929L2.73049 18.7625C2.71156 18.7516 2.69638 18.7351 2.68697 18.7154C2.67755 18.6956 2.67434 18.6735 2.67775 18.6519C2.70059 18.3556 2.70392 17.6131 2.24436 17.118C1.78141 16.6196 1.76183 15.886 1.74491 15.2386C1.74138 15.1074 1.73825 14.9836 1.7316 14.8648C1.70329 14.3738 1.61173 14.3126 1.3086 14.1095C1.21703 14.0481 1.10309 13.9717 0.971902 13.8694C0.31929 13.3602 0.379224 11.0767 0.474386 10.3025C0.640868 8.95283 0.888727 8.05835 1.2115 7.64315C1.69097 7.02656 1.913 6.51986 1.85526 6.44168C1.84945 6.43952 1.84334 6.43828 1.83715 6.43801C1.43925 6.40745 1.46356 6.04145 1.47528 5.86565C1.47714 5.83695 1.47901 5.81071 1.47901 5.78847C1.47901 5.61845 1.78214 4.91423 1.8751 4.7024C2.5758 3.11229 4.59336 0.635697 4.61368 0.610858L4.71783 0.483398L4.78282 0.634631C6.07792 3.6507 7.0031 4.11219 7.74654 4.48298C7.81587 4.5176 7.88379 4.55143 7.95039 4.58646L8.04595 4.63667L7.98801 4.7285C7.16832 6.03193 4.99092 7.60159 4.61021 7.68097L4.57618 7.68803L4.58284 7.69336L4.6172 7.71946C4.79594 7.85438 5.04067 8.03911 5.05459 8.56786C5.06684 9.03401 4.33825 10.0129 3.63363 10.9603C3.50883 11.128 3.38796 11.2905 3.27729 11.4424C2.69493 12.2415 2.83331 12.3926 3.06259 12.6426C3.0867 12.6692 3.11154 12.6958 3.13644 12.7245C3.45609 13.0895 3.45562 13.1665 3.13065 14.3715C2.88425 15.2856 2.94672 15.5451 3.07131 16.0621C3.10694 16.21 3.1473 16.3777 3.18645 16.5857C3.34628 17.4339 2.95651 18.6735 2.84104 18.7566L2.78949 18.7929ZM4.66449 0.865709C4.24415 1.39219 2.65637 3.42361 2.0573 4.78291C1.87497 5.19852 1.67812 5.70129 1.67812 5.78847C1.67812 5.81444 1.67612 5.84527 1.67393 5.8789C1.65774 6.12183 1.67892 6.22558 1.85186 6.2389C1.89143 6.2398 1.92994 6.25188 1.96293 6.27374C1.99592 6.2956 2.02206 6.32635 2.03832 6.36243C2.18696 6.69853 1.4529 7.65753 1.36873 7.76581C1.07266 8.14646 0.83179 9.03214 0.672167 10.327C0.602621 10.9664 0.594816 11.611 0.648859 12.2519C0.716651 13.0221 0.874876 13.5406 1.09437 13.7119C1.21983 13.8099 1.32578 13.8808 1.41934 13.9435C1.75897 14.1709 1.89788 14.2858 1.93058 14.8533C1.93763 14.9751 1.94096 15.1006 1.94449 15.2334C1.96081 15.8452 1.97932 16.5386 2.39067 16.9821C2.70931 17.3252 2.82925 17.7674 2.86854 18.1305C2.97748 17.7177 3.08323 17.1158 2.9902 16.6222C2.95198 16.4192 2.91222 16.2542 2.877 16.1085C2.74867 15.5757 2.67795 15.2827 2.93773 14.3191C3.25072 13.1582 3.24086 13.1471 2.98601 12.8556C2.96217 12.8283 2.93839 12.8024 2.91529 12.7772C2.61881 12.454 2.46985 12.2112 3.11573 11.3244C3.22681 11.1719 3.34807 11.009 3.47327 10.8407C4.09345 10.007 4.86506 8.96941 4.85481 8.57265C4.84342 8.14026 4.65929 8.00115 4.4968 7.87849L4.46098 7.85132C4.42901 7.82674 4.40038 7.80737 4.37714 7.79138C4.3172 7.75063 4.25467 7.70848 4.27019 7.6295C4.28717 7.54346 4.35256 7.52961 4.56912 7.48466C4.86007 7.42406 6.90654 5.98365 7.75893 4.71285C7.7251 4.69576 7.69089 4.67865 7.65631 4.66151C6.89695 4.28293 5.95466 3.81298 4.66449 0.865709Z" fill="#FAFAFA"/>
<path id="Vector_2" d="M5.93282 3.05663C5.93282 3.05663 6.32958 3.75079 5.84272 6.69926C5.03115 7.33043 4.90496 7.4206 4.90496 7.4206C4.90496 7.4206 5.21129 5.92385 5.17546 4.60744C5.13963 3.29103 4.60742 0.748379 4.60742 0.748379L4.69 0.674194L5.93282 3.05663Z" fill="#FAFAFA"/>
<path id="Vector_3" d="M3.77817 1.87537C3.77817 1.87537 4.5356 4.17462 4.34621 7.60989C4.51803 7.76369 4.67227 7.93606 4.8061 8.12386C4.72172 8.04043 4.61928 7.97752 4.50671 7.93999C4.39414 7.90246 4.27445 7.89132 4.15689 7.90743C3.75113 7.96157 3.42656 8.15089 3.37242 7.36643C3.31828 6.58196 3.7241 4.63445 2.77734 3.30905C3.4536 2.25408 3.77817 1.87537 3.77817 1.87537Z" fill="#FAFAFA"/>
<path id="Vector_4" d="M2.01978 4.58038C2.01978 4.58038 2.64189 5.17546 2.77715 6.23036C2.9124 7.28526 2.83129 8.44844 3.66983 8.55665C4.50836 8.66487 4.95467 8.56997 4.95467 8.56997L4.48126 9.69253C4.48126 9.69253 3.34518 9.90889 2.9124 8.88103C2.47961 7.85316 2.72307 6.50066 1.84398 6.33837C1.45174 6.20312 1.57794 5.78838 1.57794 5.78838L2.01978 4.58038Z" fill="#FAFAFA"/>
<path id="Vector_5" d="M1.72253 7.09595C1.72253 7.09595 2.20939 7.42059 2.3176 8.77303C2.42582 10.1255 3.77825 10.5854 3.77825 10.5854L3.02089 11.6403C3.02089 11.6403 2.34464 10.9911 2.18235 10.396C2.02007 9.80096 2.07414 8.52963 0.883789 8.63798C0.992136 8.12388 1.53314 7.36645 1.72253 7.09595Z" fill="#FAFAFA"/>
<path id="Vector_6" d="M0.694207 9.31403C0.694207 9.31403 1.37046 10.1797 1.668 10.8559C1.96553 11.532 2.88525 12.6682 2.88525 12.6682L3.23686 13.0199L3.26396 13.4797C3.26396 13.4797 2.85821 13.2362 2.4795 12.9928C2.10078 12.7493 1.91146 12.4247 1.668 12.1004C1.42453 11.7761 1.09996 11.4783 0.504883 11.1808C0.530036 10.5552 0.593261 9.93185 0.694207 9.31403Z" fill="#FAFAFA"/>
<path id="Vector_7" d="M0.532227 11.9649C0.532227 11.9649 1.18144 12.8573 1.42491 12.9928C1.66837 13.1283 2.47981 13.3715 2.69623 13.7772C2.91266 14.183 3.04784 14.4535 3.04784 14.4535L2.85852 15.4273C2.85852 15.4273 2.61506 14.6428 2.23634 14.3993C1.85763 14.1559 0.937778 13.8313 0.829764 13.5879C0.72175 13.3445 0.532227 11.9649 0.532227 11.9649Z" fill="#FAFAFA"/>
<path id="Vector_8" d="M1.77637 14.7781C1.77637 14.7781 2.23619 15.5355 2.47966 15.8601C2.72312 16.1847 3.12887 16.8339 3.12887 16.8339L3.04769 17.7535C3.04769 17.7535 2.99362 17.0773 2.66898 16.8612C2.34434 16.6451 1.88458 16.4283 1.88458 16.3202C1.88458 16.212 1.77637 14.7781 1.77637 14.7781Z" fill="#FAFAFA"/>
<path id="Vector_9" d="M15.9232 20.8116C14.4998 20.8116 13.1084 20.3895 11.925 19.5987C10.7415 18.8079 9.81907 17.684 9.27438 16.369C8.72968 15.0539 8.58716 13.6069 8.86485 12.2109C9.14253 10.8149 9.82794 9.53259 10.8344 8.52612C11.8409 7.51966 13.1232 6.83424 14.5192 6.55656C15.9152 6.27887 17.3622 6.42139 18.6772 6.96609C19.9923 7.51079 21.1162 8.4332 21.907 9.61668C22.6978 10.8002 23.1198 12.1916 23.1198 13.6149C23.1177 15.5229 22.3588 17.3522 21.0096 18.7013C19.6605 20.0505 17.8312 20.8094 15.9232 20.8116ZM15.9232 6.8179C14.5789 6.8179 13.2647 7.21655 12.1469 7.96342C11.0292 8.7103 10.158 9.77186 9.64351 11.0139C9.12906 12.2559 8.99446 13.6225 9.25673 14.9411C9.519 16.2596 10.1664 17.4707 11.117 18.4213C12.0676 19.3719 13.2787 20.0192 14.5972 20.2815C15.9157 20.5437 17.2824 20.4091 18.5244 19.8947C19.7664 19.3802 20.8279 18.509 21.5748 17.3912C22.3217 16.2734 22.7203 14.9593 22.7203 13.6149C22.7182 11.8129 22.0015 10.0852 20.7272 8.81094C19.4529 7.53669 17.7253 6.81993 15.9232 6.8179Z" fill="#FAFAFA"/>
<path id="Vector_10" d="M15.942 20.1337C14.6563 20.1337 13.3995 19.7524 12.3304 19.0381C11.2614 18.3238 10.4282 17.3086 9.93623 16.1208C9.44422 14.9329 9.31549 13.6259 9.56632 12.3649C9.81714 11.1039 10.4363 9.94565 11.3454 9.03654C12.2545 8.12742 13.4128 7.5083 14.6738 7.25748C15.9347 7.00665 17.2418 7.13538 18.4296 7.6274C19.6174 8.11941 20.6327 8.9526 21.347 10.0216C22.0612 11.0906 22.4425 12.3474 22.4425 13.6331C22.4406 15.3566 21.7551 17.0089 20.5364 18.2276C19.3177 19.4462 17.6654 20.1317 15.942 20.1337ZM15.942 7.26576C14.6826 7.26576 13.4515 7.6392 12.4044 8.33885C11.3573 9.0385 10.5412 10.0329 10.0593 11.1964C9.57735 12.3599 9.45126 13.6402 9.69694 14.8753C9.94263 16.1105 10.5491 17.245 11.4396 18.1355C12.33 19.026 13.4646 19.6324 14.6997 19.8781C15.9349 20.1238 17.2152 19.9977 18.3786 19.5158C19.5421 19.0339 20.5366 18.2177 21.2362 17.1706C21.9359 16.1235 22.3093 14.8925 22.3093 13.6331C22.3074 11.945 21.636 10.3265 20.4423 9.13277C19.2486 7.93906 17.6301 7.26759 15.942 7.26569V7.26576Z" fill="#FAFAFA"/>
<path id="Vector_11" d="M30.5643 19.8476L30.3779 19.7854C30.3825 19.7546 30.8328 16.6936 30.1014 15.4137C29.8029 14.8913 29.4053 14.3829 29.0207 13.8913C28.4275 13.133 27.9152 12.4782 27.9152 11.9559C27.9241 11.5973 27.971 11.2407 28.0551 10.8921C28.1254 10.5558 28.1861 10.2654 28.1339 10.0299C28.1028 9.89452 28.0647 9.7608 28.0198 9.62932C27.9378 9.37733 27.8449 9.09172 27.7534 8.39835C27.6095 7.30376 27.522 6.85859 26.7945 6.83508C25.9159 6.80678 25.3647 6.60567 23.7744 4.79966L23.6865 4.69977L23.8067 4.6431C23.8204 4.63644 25.1889 3.9827 25.9216 2.90123C27.0731 1.20131 27.1304 0.674225 27.1308 0.669097L27.1566 0.371826L27.3151 0.622948C27.6986 1.235 28.8201 2.82778 29.398 2.84835L29.407 2.84869C30.2194 2.87772 30.3793 2.92267 30.6019 4.17495C30.6485 4.43626 30.7001 4.76697 30.7601 5.14994C30.9799 6.55386 31.2812 8.4766 31.6849 9.33445C31.9652 9.93012 31.7079 10.7956 31.49 11.3947L31.4827 11.4147C30.9719 12.7889 31.3869 13.6894 31.5893 14.0128C32.0641 14.7726 32.0341 15.9886 31.5002 17.6272C31.247 18.3908 30.9341 19.1332 30.5643 19.8476ZM24.01 4.76477C25.4884 6.42959 25.98 6.60899 26.8009 6.63543C27.727 6.66533 27.8164 7.34438 27.9516 8.37231C28.0404 9.04743 28.1303 9.32373 28.2097 9.56752C28.2566 9.70506 28.2964 9.84497 28.3287 9.98666C28.3904 10.2641 28.3256 10.5741 28.2505 10.933C28.1695 11.2683 28.124 11.6111 28.1148 11.9559C28.1148 12.4092 28.6311 13.0694 29.1777 13.7682C29.5667 14.2655 29.9689 14.7796 30.2746 15.3145C30.8457 16.314 30.7429 18.2546 30.6457 19.2298C31.1706 18.1031 32.2474 15.4434 31.4195 14.1186C31.2017 13.7702 30.7536 12.8024 31.2954 11.3451L31.302 11.3266C31.4206 11.0007 31.7815 10.009 31.5039 9.41969C31.0881 8.53593 30.7843 6.59688 30.5625 5.18104C30.5026 4.79913 30.451 4.46936 30.405 4.21011C30.2035 3.07723 30.1275 3.0745 29.3994 3.04853H29.3904C29.0457 3.03628 28.5609 2.63785 27.9496 1.86444C27.6612 1.49951 27.4102 1.13285 27.2682 0.918821C27.1616 1.22242 26.8727 1.85325 26.0865 3.0139C25.4435 3.96319 24.3682 4.57797 24.01 4.76477Z" fill="#FAFAFA"/>
<path id="Vector_12" d="M29.4443 6.47908C29.4139 6.33924 29.38 6.19939 29.336 6.06334C29.3154 5.98035 29.2766 5.903 29.2224 5.83693C29.1675 5.77717 29.0951 5.73629 29.0155 5.72012C28.7245 5.67151 28.5824 6.00814 28.5912 6.24954C28.5961 6.37411 28.6217 6.49699 28.667 6.61313C28.7031 6.72455 28.7658 6.82552 28.8496 6.90734C28.9043 6.95608 28.9731 6.98603 29.046 6.99282C29.119 6.9996 29.1921 6.98285 29.2549 6.94503C29.3966 6.8518 29.4413 6.67866 29.4497 6.51884C29.4494 6.47918 29.4335 6.44122 29.4055 6.41318C29.3774 6.38514 29.3395 6.36927 29.2998 6.369C29.2604 6.36985 29.2227 6.38591 29.1948 6.41383C29.1669 6.44175 29.1508 6.47937 29.15 6.51884C29.1493 6.53282 29.1482 6.54674 29.147 6.56066C29.147 6.56326 29.1433 6.5851 29.1464 6.56732C29.1496 6.54807 29.1447 6.57438 29.1438 6.57891C29.1389 6.60395 29.1294 6.62739 29.1238 6.65216C29.1291 6.63005 29.1305 6.63884 29.122 6.65482C29.1169 6.66481 29.1094 6.67407 29.1047 6.68412C29.098 6.69744 29.1122 6.67274 29.1144 6.67234C29.1124 6.67234 29.1072 6.68079 29.1056 6.68239C29.1025 6.68532 29.0989 6.68852 29.0964 6.69171C29.0816 6.70896 29.104 6.68213 29.1073 6.68452C29.1073 6.68452 29.0881 6.69638 29.0865 6.69784C29.0673 6.71116 29.1198 6.68672 29.0885 6.69611C29.0877 6.69611 29.0767 6.69924 29.0766 6.69891C29.0757 6.69584 29.1116 6.69837 29.096 6.69624C29.0938 6.69624 29.0661 6.69624 29.0662 6.69624C29.0673 6.69271 29.1038 6.70397 29.0702 6.69531C29.0623 6.69331 29.0263 6.68039 29.0544 6.69131C29.08 6.7013 29.0582 6.69132 29.0517 6.68792C29.0267 6.67387 29.0711 6.7079 29.056 6.69158C29.044 6.6788 29.0318 6.66554 29.0195 6.65302C29.0092 6.6425 29.0295 6.66508 29.0294 6.66581C29.0294 6.66355 29.0227 6.65649 29.0214 6.65449C29.0153 6.64517 29.0091 6.63598 29.0033 6.62645C28.9918 6.60761 28.9813 6.58816 28.9717 6.56832C28.9669 6.55873 28.9629 6.54874 28.9583 6.53928C28.9507 6.52443 28.9624 6.54921 28.9627 6.54994C28.96 6.54328 28.9571 6.53622 28.9545 6.52936C28.9367 6.4832 28.9222 6.43587 28.911 6.38772C28.9053 6.36361 28.9007 6.3393 28.8966 6.31486C28.8954 6.30935 28.8946 6.30377 28.8941 6.29815C28.8941 6.29862 28.8967 6.32765 28.8959 6.31027C28.8954 6.29755 28.8933 6.28476 28.8925 6.27205C28.8911 6.24927 28.8905 6.22643 28.8913 6.20359C28.8913 6.19353 28.8924 6.18361 28.8931 6.17355C28.8953 6.13866 28.8879 6.19453 28.8931 6.17049C28.8977 6.14837 28.9036 6.12654 28.9108 6.1051C28.913 6.09877 28.9268 6.06514 28.9209 6.07753C28.915 6.08991 28.9314 6.05755 28.9349 6.05136C28.941 6.0405 28.9486 6.03065 28.9549 6.01986C28.9629 6.00581 28.9475 6.03158 28.9461 6.03131C28.947 6.03131 28.954 6.02239 28.9551 6.02146C28.9598 6.01713 28.9817 5.99835 28.9612 6.014C28.9407 6.02965 28.9656 6.0132 28.9709 6.00954C28.9894 5.99675 28.9346 6.02239 28.9633 6.01373C28.988 6.00627 28.9415 6.01373 28.9484 6.01486C28.9546 6.0157 28.9608 6.0157 28.967 6.01486C28.9776 6.0128 28.9431 6.01147 28.9424 6.01113C28.9463 6.01217 28.9503 6.01294 28.9543 6.01346C28.961 6.01589 28.9679 6.01791 28.9748 6.01952C28.9825 6.02079 28.9394 6.00141 28.9615 6.01393C28.9727 6.02059 28.9838 6.02658 28.9948 6.03351C29.0188 6.04869 28.98 6.02019 28.9848 6.02552C28.9884 6.02931 28.993 6.03251 28.9969 6.03611C29.0046 6.04277 29.011 6.05136 29.0186 6.05841C29.0331 6.07173 28.9964 6.02152 29.0065 6.04283C29.0085 6.04709 29.0115 6.05122 29.0139 6.05535C29.0162 6.05948 29.0189 6.06541 29.0215 6.07047C29.0325 6.09211 29.0225 6.07779 29.0181 6.06148C29.0271 6.09477 29.0425 6.12767 29.053 6.1609C29.094 6.29176 29.1267 6.42574 29.1559 6.55973C29.1667 6.59789 29.1921 6.63027 29.2266 6.64986C29.261 6.66945 29.3019 6.67468 29.3402 6.66441C29.3782 6.65301 29.4102 6.62732 29.4296 6.59276C29.4491 6.5582 29.4543 6.51745 29.4443 6.47908Z" fill="#FAFAFA"/>
<path id="Vector_13" d="M29.9357 8.15996C29.9183 8.0056 29.8973 7.8513 29.8713 7.69821C29.8442 7.53931 29.822 7.30151 29.6367 7.24744C29.356 7.16553 29.2756 7.54711 29.2571 7.74142C29.2474 7.84967 29.2455 7.95848 29.2515 8.067C29.2531 8.19834 29.2751 8.32864 29.3167 8.45324C29.3381 8.53168 29.3876 8.5995 29.4558 8.64376C29.4942 8.66319 29.5369 8.67219 29.5798 8.66985C29.6227 8.66751 29.6643 8.65392 29.7002 8.63044C29.8557 8.53375 29.9253 8.3341 29.9357 8.16029C29.9357 8.12056 29.9199 8.08244 29.8918 8.05435C29.8637 8.02625 29.8256 8.01046 29.7859 8.01046C29.7461 8.01046 29.708 8.02625 29.6799 8.05435C29.6518 8.08244 29.636 8.12056 29.636 8.16029C29.636 8.15989 29.6301 8.2117 29.6345 8.18427C29.632 8.19979 29.6286 8.21517 29.6245 8.23035C29.6205 8.2452 29.6155 8.25965 29.6111 8.27424C29.5978 8.31619 29.6237 8.25519 29.6032 8.29261C29.5921 8.31259 29.5812 8.33257 29.5683 8.35162C29.5864 8.32498 29.5645 8.35548 29.5605 8.35981C29.5552 8.36536 29.5497 8.37068 29.5441 8.37579C29.5605 8.36394 29.5623 8.36247 29.5493 8.37166L29.5409 8.37679C29.5294 8.38265 29.5297 8.38271 29.542 8.37679L29.5515 8.37259C29.5356 8.37652 29.5406 8.37626 29.5667 8.37166C29.5442 8.37313 29.597 8.37879 29.6038 8.38298L29.6199 8.3963C29.6092 8.38544 29.6105 8.38818 29.6239 8.40462C29.6148 8.38958 29.6065 8.37401 29.5992 8.35801C29.6156 8.3941 29.6005 8.35868 29.5982 8.35175C29.593 8.33657 29.5885 8.32112 29.5844 8.3056C29.5784 8.28296 29.5736 8.26005 29.5693 8.23701C29.5673 8.22615 29.5657 8.21523 29.5637 8.20431C29.5559 8.16063 29.5665 8.23515 29.5617 8.19046C29.5559 8.13579 29.5516 8.08112 29.5498 8.02618C29.5465 7.93682 29.5485 7.84734 29.5556 7.75821C29.5569 7.74309 29.5602 7.72737 29.5603 7.71226C29.5603 7.77459 29.5597 7.71785 29.5623 7.70253C29.5652 7.68555 29.5684 7.66857 29.5721 7.65172C29.5772 7.62775 29.5831 7.60391 29.5904 7.58047C29.5942 7.56855 29.5986 7.55696 29.6026 7.54517C29.5899 7.58187 29.6048 7.54178 29.6093 7.53372C29.6134 7.52775 29.6172 7.52157 29.6207 7.51521C29.6282 7.49783 29.5959 7.54378 29.6141 7.52466C29.6239 7.51421 29.6407 7.50682 29.603 7.53132C29.6163 7.52267 29.6275 7.52327 29.5864 7.53618C29.6171 7.52653 29.5446 7.53559 29.5749 7.53712C29.5259 7.53465 29.539 7.53046 29.5532 7.53499C29.574 7.54118 29.5127 7.51354 29.5387 7.52966C29.5579 7.54158 29.5067 7.50262 29.5238 7.51774C29.5269 7.52041 29.5299 7.52328 29.5326 7.52633C29.5507 7.54677 29.5077 7.48797 29.526 7.51894C29.5406 7.54378 29.5127 7.47772 29.526 7.52C29.5304 7.53425 29.5349 7.5485 29.5388 7.56289C29.5587 7.63707 29.5721 7.71319 29.5849 7.78884C29.5929 7.83619 29.6002 7.8836 29.6071 7.93108C29.6106 7.95512 29.6137 7.97916 29.6173 8.0032C29.6187 8.01286 29.6256 8.04682 29.6173 8.00167C29.6189 8.01053 29.6196 8.01965 29.6208 8.02831C29.6265 8.07206 29.6321 8.11588 29.637 8.15976C29.6381 8.19914 29.6543 8.23659 29.6821 8.26445C29.71 8.2923 29.7474 8.30846 29.7868 8.3096C29.8263 8.30911 29.864 8.29316 29.8918 8.26519C29.9197 8.23721 29.9354 8.19943 29.9357 8.15996Z" fill="#FAFAFA"/>
<path id="Vector_14" d="M29.0721 6.79623C29.0766 6.80102 29.0809 6.80602 29.0851 6.81101C29.0893 6.81601 29.0945 6.82213 29.099 6.82779C29.1022 6.83166 29.1051 6.83565 29.1083 6.83945C29.1223 6.85636 29.083 6.80535 29.0968 6.8246C29.1353 6.87755 29.1712 6.93243 29.2042 6.98902C29.2257 7.02675 29.2457 7.06526 29.2642 7.10455C29.2705 7.11787 29.2767 7.13119 29.2828 7.14451C29.2861 7.15203 29.2999 7.18447 29.286 7.15117C29.2969 7.17736 29.3072 7.20378 29.317 7.23041C29.36 7.34891 29.3918 7.47118 29.412 7.59561C29.4227 7.63384 29.4481 7.6663 29.4826 7.68589C29.5172 7.70549 29.558 7.71064 29.5963 7.70023C29.634 7.68872 29.6659 7.66321 29.6853 7.62893C29.7048 7.59466 29.7104 7.55423 29.701 7.51597C29.6621 7.27761 29.5814 7.048 29.4627 6.83772C29.4131 6.74658 29.353 6.66152 29.2838 6.58426C29.2555 6.55647 29.2174 6.54089 29.1778 6.54089C29.1382 6.54089 29.1001 6.55647 29.0719 6.58426C29.0445 6.61277 29.0293 6.65073 29.0293 6.69021C29.0293 6.72969 29.0445 6.76765 29.0719 6.79616L29.0721 6.79623Z" fill="#FAFAFA"/>
<g id="Group">
<path id="Vector_15" d="M28.7113 7.70482C28.7113 7.70482 28.6514 7.55013 28.5641 7.55639C28.5875 7.77854 28.59 7.80192 28.6048 7.94209C28.6196 8.08227 28.6209 8.34272 28.6781 8.80161C28.7353 9.2605 28.9357 10.4088 28.7351 11.4974C28.603 11.6588 28.5066 11.741 28.5136 11.393C28.5206 11.045 28.5983 9.37524 28.5036 9.14157C28.4089 8.90789 28.2306 8.79462 28.1328 8.78636C28.2801 8.99012 28.3637 9.23294 28.3731 9.48419C28.3777 9.60985 28.356 11.2301 28.3708 11.3703C28.3857 11.5105 28.4066 11.9578 28.6287 11.7347C28.6649 11.9949 28.6753 12.0093 28.7758 12.1318C28.8763 12.2543 28.7917 12.5324 28.7208 12.6906C28.6498 12.8488 28.9411 13.3945 28.9885 13.5113C29.0359 13.6281 29.3334 13.8697 29.5024 13.5518C29.6064 13.2912 29.2648 13.5016 29.2454 13.4842C29.2259 13.4668 29.0493 13.4709 28.8413 12.9999C29.0339 12.6658 29.1077 12.2824 29.0654 12.1335C29.0231 11.9846 28.8294 11.8099 28.8294 11.8099C28.8294 11.8099 29.0629 11.6129 29.1236 11.6887C29.1842 11.7645 29.251 11.8988 29.1785 12.1242C29.2831 12.2027 29.5034 12.2953 29.5454 12.4443C29.5874 12.5933 29.7255 12.4904 29.7278 12.3444C29.7231 12.2704 29.6985 12.1991 29.6565 12.138C29.6145 12.0769 29.5567 12.0283 29.4893 11.9975C29.3804 11.9628 29.4106 11.9159 29.4427 11.7228C29.4748 11.5297 29.3998 10.9862 28.9115 11.5087C28.949 11.2833 29.3348 10.0389 29.1527 9.14463C29.2732 8.95697 29.4019 8.61855 29.4144 8.48682C29.4268 8.3551 29.3469 7.88502 29.3469 7.88502C29.3469 7.88502 29.2638 8.7845 29.112 9.00738C29.0548 8.79701 28.9522 8.5724 28.9471 8.52558C28.9421 8.47877 28.9167 8.15433 28.9167 8.15433C28.9167 8.15433 29.1349 7.89614 29.1691 7.80531C29.2034 7.71448 29.2724 7.45383 29.2084 7.5123C29.1444 7.57077 29.028 7.71501 28.9814 7.68884C28.9349 7.66267 28.8717 7.56384 28.7113 7.70482Z" fill="#FAFAFA"/>
<path id="Vector_16" d="M30.1074 5.95206C30.1186 5.8112 30.1482 5.67241 30.1953 5.53918C30.2187 5.76134 30.2213 5.78471 30.2361 5.92502C30.2509 6.06534 30.2991 6.27271 30.3407 6.74911C30.3823 7.22552 30.4414 8.53247 30.8052 8.9871C30.9397 8.84899 31.0312 8.72013 30.9599 8.46009C30.8886 8.20004 30.5702 7.04092 30.5424 6.66634C30.5168 6.36221 30.5589 6.05618 30.6659 5.77033C30.6299 6.33837 30.6897 6.56625 30.7099 6.67446C30.7301 6.78268 31.0532 8.01511 31.0681 8.15542C31.0829 8.29574 31.1509 8.69023 30.9338 8.96027C30.9544 9.23796 30.9491 9.27012 30.8929 9.56859C30.8368 9.86706 30.9561 9.91628 31.0419 9.89836C31.1276 9.88045 31.111 10.8017 31.0957 10.989C31.0803 11.1762 31.0098 11.7524 30.7129 11.9292C30.5817 11.9328 30.7979 11.5722 30.8098 11.5194C30.9445 11.1562 31.0108 10.7713 31.0054 10.384C30.7905 10.5077 30.6602 10.3534 30.6653 10.1515C30.6703 9.94971 30.7899 9.42329 30.7899 9.42329C30.7899 9.42329 30.5687 9.73708 30.5352 9.91854C30.5017 10.1 30.4746 10.34 30.5744 10.3717C30.5067 10.6439 30.3507 11.1592 30.3458 11.361C30.341 11.5628 30.2126 11.7592 30.1832 11.6482C30.1538 11.5373 30.2262 11.1421 30.3055 10.8961C30.3848 10.6501 30.3521 10.6738 30.2901 10.5864C30.2281 10.499 30.1848 9.91994 30.6681 9.3507C30.5959 9.24875 30.0571 9.04331 30.0316 7.97316C29.9012 8.06739 29.7552 8.179 29.7204 8.10029C29.6896 8.00107 29.6672 7.89945 29.6533 7.79649C29.6533 7.79649 29.876 7.91243 30.0377 7.78317C30.0431 7.50241 30.0815 7.1191 30.0766 7.07242C30.0717 7.02574 30.0305 6.71875 30.0305 6.71875C30.0305 6.71875 29.8097 6.95355 29.7657 6.95082C29.7216 6.94809 29.6179 6.88137 29.6794 6.79919C29.741 6.71702 29.8598 6.59655 29.8915 6.48241C29.9264 6.2927 29.9998 6.11218 30.1074 5.95206Z" fill="#FAFAFA"/>
</g>
<path id="Vector_17" d="M29.3939 9.31181C29.3939 9.31181 29.9528 8.98943 30.0881 8.86324C30.2233 8.73704 30.1151 9.10663 30.1151 9.10663C30.1764 9.32583 30.2135 9.55108 30.2256 9.77836C30.2323 10.7386 30.0701 10.9821 29.7635 11.1084C29.7635 11.1084 29.3573 11.2526 29.3217 10.5132C29.2924 9.90009 29.4209 9.58224 29.4209 9.58224C29.4209 9.58224 29.2586 9.36588 29.3939 9.31181Z" fill="#FAFAFA"/>
<path id="Vector_18" d="M29.137 9.25095C29.137 9.25095 29.3331 9.3591 29.4616 9.3591C29.59 9.3591 29.421 9.51466 29.421 9.51466C29.3183 9.4648 29.2189 9.40832 29.1235 9.34558L29.0693 9.29823L29.1437 9.21686L29.137 9.25095Z" fill="#FAFAFA"/>
<path id="Vector_19" d="M13.8386 8.13116L13.4477 8.21887L13.1112 8.34213L12.8093 8.48264L12.5429 8.64153L12.3298 8.83512L12.1347 9.04609L11.9752 9.25699L11.8333 9.50358L11.7267 9.76736L11.6379 10.0319L11.5851 10.3134L11.5496 10.5946L11.5315 10.9115L11.5139 11.2109L11.5315 11.5277L11.5496 11.8443L11.6024 12.4955L11.6914 13.129L11.7797 13.7452L11.8333 14.3434L11.8507 14.6248L11.8686 14.9067L11.8507 15.1531L11.8333 15.3995L11.7976 15.6279L11.7443 15.839L11.656 16.0151L11.5496 16.1911L11.4605 16.1382L11.3539 16.0679L11.2477 15.9275L11.123 15.7687L11.0702 15.6454L11.0168 15.5222L10.9811 15.3815L10.9459 15.2407L10.9102 15.0646L10.8928 14.8711V14.6601V14.431L10.6793 14.4666L10.5731 14.5013L10.4846 14.5369L10.4136 14.5725L10.3427 14.6248L10.2891 14.6956L10.2537 14.7478L10.1828 14.9067L10.147 15.0646L10.1299 15.2407L10.1652 15.4344L10.2006 15.6279L10.2718 15.8216L10.3601 16.0151L10.4491 16.226L10.5731 16.4022L10.6974 16.5959L10.8219 16.7544L10.9638 16.8951L11.4424 16.7191L11.8507 16.5253L12.028 16.4377L12.1702 16.332L12.3125 16.226L12.4365 16.1209L12.5429 16.0151L12.6493 15.8918L12.7202 15.7866L12.7912 15.6634L12.8447 15.5403L12.8802 15.4171L12.9512 15.1531L12.9693 14.8891L12.9512 14.5898L12.9336 14.2904L12.8802 13.9562L12.7738 13.2522L12.7202 12.8651L12.6845 12.4606L12.6674 12.3373L12.6317 11.9852L12.6136 11.4572L12.6317 11.1579L12.6493 10.8236L12.6845 10.4713L12.7554 10.1198L12.8447 9.75004L12.9693 9.3985L13.1288 9.04609L13.2175 8.88806L13.324 8.72924L13.4306 8.57121L13.5544 8.41239L13.6967 8.27181L13.8386 8.13116Z" fill="#FAFAFA"/>
<path id="Vector_20" d="M16.6966 17.1945V16.948L16.7142 16.7191L16.7848 16.279L16.8734 15.8568L16.9979 15.4873L17.247 14.7832L17.3702 14.4489L17.4771 14.1323L17.5481 13.7975L17.5654 13.6394V13.4811V13.3224L17.5481 13.1463L17.5307 12.9709L17.4771 12.7948L17.4062 12.6186L17.3353 12.425L17.2283 12.2315L17.1048 12.0381L16.9617 11.827L16.8022 11.6153L16.607 11.3868L16.3766 11.1405L15.8974 11.5276L15.3825 11.9145L14.7796 12.3373L14.7618 11.721L14.7796 11.0876L14.8151 10.3487L14.8324 9.97894L14.886 9.62673L14.957 9.2925L15.0279 8.9933L15.1343 8.72919L15.1879 8.62411L15.2588 8.53554L15.3297 8.46528L15.4007 8.39496L15.4892 8.3594H15.5783L15.6492 8.43059L15.738 8.50084L15.8439 8.57116L15.9684 8.64149L16.0929 8.6943L16.2348 8.72919L16.3943 8.74657L16.5361 8.76455L16.6966 8.74657L16.8558 8.71188L17.0153 8.64149L17.1934 8.55312L17.3526 8.43059L17.5118 8.27176L17.6726 8.0608L17.8145 7.83172L17.6899 7.88466L17.5654 7.93753L17.4409 7.95491L17.318 7.99047H17.0689L16.8385 7.97223L16.5897 7.90197L16.3593 7.81434L16.1276 7.70859L15.8974 7.58539L15.6311 7.691L15.4007 7.81434L15.1698 7.95491L14.957 8.11374L14.7796 8.28908L14.6023 8.4826L14.4605 8.71188L14.3186 8.94096L14.2114 9.2046L14.1049 9.48602L14.0341 9.80287L13.981 10.1198L13.9277 10.4713L13.9101 10.8591V11.2636L13.9277 11.6856L14.0519 13.4988L14.0876 14.4489L14.1229 15.3814V15.8215V16.244L14.0876 16.6488L14.0519 17.001L13.9986 17.3352L13.9277 17.6166L13.8391 17.8456L13.7858 17.9332L13.733 18.0217L13.5021 17.8803L13.3064 17.7571L13.1117 17.6695L12.9517 17.599L12.8098 17.546L12.6679 17.5113L12.5435 17.4933H12.4371L12.3131 17.5113L12.224 17.546L12.0285 17.6166L11.6211 17.8099L11.8339 17.8803L12.0285 17.9508L12.1885 18.0567L12.3304 18.1623L12.5613 18.3733L12.6679 18.4612L12.7744 18.5494L12.8808 18.6199L12.9869 18.6545L13.1293 18.6727L13.2887 18.6372L13.4664 18.5844L13.662 18.4612L13.9101 18.303L14.1938 18.0741L14.3004 17.9688L14.4068 17.8629L14.4959 17.7571L14.5841 17.6346L14.7261 17.37L14.8324 17.0886L14.9034 16.7893L14.957 16.4906L14.9927 16.1738V15.8568V15.5576L14.9751 15.2582L14.9388 14.6955L14.8679 14.2027L14.8324 13.8503L14.7969 12.8121L14.886 12.7244L14.9751 12.6186L15.0988 12.5483L15.2055 12.4778L15.3297 12.425L15.4537 12.4076L15.5783 12.425L15.7025 12.4605L15.8092 12.5483L15.9337 12.6715L16.022 12.8477L16.1276 13.076L16.2001 13.3581L16.2695 13.7096L16.3233 14.1323L16.3593 14.6247L16.3766 14.9596V15.2935L16.3419 15.8389L16.3056 16.297L16.2348 16.7014L16.2001 17.0357L16.1638 17.37V17.546L16.1815 17.7049L16.2001 17.8803L16.2348 18.0741L16.3419 18.4791L16.3943 18.6727L16.4652 18.8308L16.5361 18.9715L16.6257 19.0947L16.6966 19.2005L16.8022 19.2882L16.8908 19.3587L16.9979 19.3941L17.1048 19.4116H17.2107L17.3353 19.3767L17.4595 19.3237L17.6016 19.2358L17.7435 19.1126L17.903 18.9715L17.974 18.8663L18.0099 18.8308V18.7777V18.743L17.9913 18.7075L17.939 18.6545L17.8494 18.6199L17.583 18.5141L17.4409 18.4436L17.2817 18.3733L17.1398 18.2674L16.9979 18.1269L16.8734 17.9688L16.8198 17.8629L16.7675 17.7571L16.7316 17.6346L16.7142 17.5113L16.6966 17.3525V17.1945Z" fill="#FAFAFA"/>
<path id="Vector_21" d="M20.5119 13.182H20.4757L20.1573 12.9355L19.9792 12.7774L19.8197 12.6013L19.6419 12.425L19.4824 12.2315L19.3405 12.0204L19.216 11.809L19.1104 11.598L19.0382 11.3868L18.9859 11.1753V10.9644L19.0032 10.8591L19.0208 10.7534L19.0568 10.6649L19.1104 10.5597L19.1814 10.4539L19.252 10.3661L19.3405 10.2777L19.4464 10.1901L19.6955 10.3133L19.9442 10.4893L20.192 10.7004L20.441 10.9468L20.6712 11.2282L20.7783 11.3868L20.8668 11.545L20.9552 11.721L21.0261 11.8973L21.097 12.0727L21.1504 12.267L21.2039 12.1612L21.2575 12.0554L21.3098 11.8443L21.3284 11.6154V11.3868L21.2751 11.1753L21.2039 10.9468L21.097 10.7178L20.9552 10.5067L20.7956 10.296L20.6365 10.0842L20.441 9.8908L20.2283 9.71507L20.0152 9.53899L19.7838 9.38024L19.5535 9.23959L19.3232 9.11639L19.1104 9.4158L18.9322 9.69709L18.7728 9.96099L18.6483 10.2074L18.524 10.4539L18.4357 10.6831L18.3459 10.9115L18.2936 11.123L18.2576 11.3339L18.2227 11.5277L18.2041 11.7037V11.8793L18.2227 12.0381L18.2403 12.1959L18.275 12.3547L18.3286 12.4955L18.4357 12.7419L18.5776 12.9709L18.7195 13.182L18.8788 13.3581L19.0568 13.4988L19.1987 13.6394L19.4464 13.833L19.6781 14.0439L19.8733 14.2554L20.0327 14.4839L20.1747 14.6956L20.2805 14.924L20.3876 15.1531L20.4584 15.3815L20.5119 15.6105L20.5466 15.8216V16.0325V16.226L20.5293 16.4197L20.4944 16.5959L20.441 16.7544L20.3876 16.8951L20.3165 17.0183L20.2283 17.1242L20.1386 17.2118L20.0327 17.2648L19.9256 17.2823H19.8197L19.6955 17.2468L19.5709 17.1945L19.4464 17.0886L19.3232 16.9654L19.1987 16.7894L19.0743 16.5783L18.9499 16.3146L18.8251 16.0151L18.7019 15.6807L18.595 15.2762L18.4893 14.8361L18.4181 15.0829L18.3649 15.3466L18.3459 15.6279V15.9275L18.3822 16.226L18.4357 16.5253L18.5067 16.8248L18.595 17.1062L18.7019 17.37L18.8251 17.599L18.9673 17.81L19.1104 17.9862L19.1814 18.0391L19.2697 18.1094L19.3405 18.145L19.4291 18.1798L19.5174 18.1972H19.6069L19.6955 18.1798L19.7838 18.145L19.9442 18.0567L20.121 17.9332L20.3341 17.7754L20.5466 17.5817L20.7597 17.3526L20.9728 17.0886L21.168 16.7894L21.346 16.4725L21.417 16.297L21.4706 16.1208L21.5228 15.9448L21.5589 15.7513L21.5764 15.5576V15.3642L21.5589 15.1704L21.5415 14.9597L21.4879 14.7478L21.417 14.5369L21.3284 14.3078L21.2216 14.0968L21.0794 13.8683L20.9204 13.6394L20.7248 13.4104L20.5119 13.182Z" fill="#FAFAFA"/>
<g id="Group_2">
<g id="Group_3">
<path id="Vector_22" d="M13.6025 25.1144V25.0694C13.67 25.0678 13.7369 25.0557 13.8007 25.0336C13.8471 25.0179 13.8875 24.988 13.9161 24.9482C13.9376 24.9025 13.9492 24.8527 13.9502 24.8022C13.9566 24.7299 13.9599 24.6121 13.9599 24.4489V23.9253C13.962 23.8279 13.9578 23.7303 13.9471 23.6334C13.9431 23.5902 13.9278 23.5489 13.9027 23.5135C13.8722 23.4832 13.8339 23.4619 13.7921 23.4517C13.7305 23.4333 13.6668 23.4224 13.6025 23.419V23.3716C13.6341 23.3724 13.669 23.373 13.7071 23.3734C13.7452 23.3738 13.8015 23.374 13.876 23.374C13.9675 23.374 14.0358 23.3738 14.0808 23.3734C14.1258 23.373 14.1669 23.372 14.2041 23.3704C14.1985 23.4558 14.1943 23.5308 14.1914 23.5954C14.1886 23.6601 14.1872 23.7123 14.1872 23.7522V24.5932C14.1845 24.6875 14.1892 24.7819 14.2011 24.8756C14.2065 24.9161 14.2231 24.9543 14.2492 24.9858C14.2812 25.015 14.3202 25.0354 14.3624 25.0452C14.4236 25.0605 14.4864 25.0687 14.5496 25.0695V25.1144C14.4208 25.112 14.324 25.1105 14.2591 25.1101C14.1942 25.1097 14.1338 25.1095 14.0779 25.1096C14.0221 25.1096 13.9617 25.1097 13.8969 25.1101C13.832 25.1105 13.7339 25.1119 13.6025 25.1144Z" fill="#FAFAFA"/>
<path id="Vector_23" d="M14.8308 25.1763L14.8065 25.1241C14.9893 25.038 15.1566 24.9224 15.3018 24.7819C15.4227 24.6614 15.5137 24.5143 15.5673 24.3523C15.5101 24.3866 15.4489 24.4138 15.3851 24.4334C15.3271 24.4506 15.2669 24.4595 15.2064 24.4595C15.1377 24.4629 15.0689 24.4518 15.0047 24.427C14.9405 24.4021 14.8822 24.364 14.8337 24.3152C14.7851 24.2664 14.7473 24.208 14.7228 24.1436C14.6982 24.0793 14.6874 24.0105 14.6911 23.9418C14.6884 23.8629 14.702 23.7843 14.7311 23.7109C14.7603 23.6375 14.8044 23.571 14.8606 23.5156C14.9184 23.4601 14.9868 23.4168 15.0617 23.3883C15.1365 23.3598 15.2164 23.3467 15.2964 23.3497C15.3778 23.3452 15.4592 23.3577 15.5355 23.3862C15.6119 23.4148 15.6815 23.4588 15.74 23.5156C15.7959 23.5771 15.839 23.6492 15.8667 23.7275C15.8945 23.8059 15.9063 23.889 15.9016 23.972C15.9021 24.2387 15.8016 24.4957 15.6202 24.6912C15.4049 24.9202 15.1324 25.0877 14.8308 25.1763ZM15.5929 24.2684C15.6056 24.2175 15.6155 24.166 15.6226 24.1141C15.6294 24.0645 15.6329 24.0146 15.633 23.9645C15.6401 23.8249 15.6076 23.6861 15.5394 23.5641C15.5144 23.519 15.4777 23.4815 15.4332 23.4555C15.3886 23.4295 15.3379 23.416 15.2864 23.4164C15.2379 23.4151 15.1899 23.4255 15.1464 23.4468C15.1029 23.468 15.0652 23.4995 15.0366 23.5386C14.971 23.6416 14.9383 23.7622 14.9427 23.8842C14.9472 24.0063 14.9886 24.1242 15.0615 24.2222C15.0991 24.2667 15.1463 24.3022 15.1995 24.326C15.2528 24.3497 15.3107 24.3612 15.3689 24.3596C15.4105 24.3601 15.4518 24.3525 15.4905 24.3371C15.5287 24.321 15.5635 24.2977 15.5929 24.2684Z" fill="#FAFAFA"/>
<path id="Vector_24" d="M16.0122 25.1193L15.9951 25.084C16.2327 24.8919 16.4476 24.6733 16.6356 24.4326C16.7709 24.2461 16.8386 24.0775 16.8386 23.9269C16.8443 23.8296 16.8145 23.7335 16.7547 23.6565C16.7259 23.6237 16.6901 23.5979 16.6499 23.581C16.6097 23.5641 16.5662 23.5564 16.5226 23.5587C16.4487 23.5596 16.3764 23.5799 16.3129 23.6176C16.2354 23.664 16.1666 23.7234 16.1093 23.7932L16.0717 23.7628C16.1292 23.6429 16.2126 23.5372 16.316 23.4535C16.4044 23.3877 16.5121 23.3529 16.6223 23.3545C16.6839 23.3531 16.7451 23.3649 16.8018 23.3891C16.8585 23.4133 16.9094 23.4494 16.951 23.4949C17.0394 23.5898 17.0868 23.7158 17.0828 23.8455C17.0828 23.9954 17.0191 24.1565 16.8915 24.3286C16.7166 24.5475 16.5151 24.7437 16.2917 24.9126L16.7341 24.9078C16.7967 24.9094 16.8593 24.9058 16.9212 24.8968C16.9529 24.8919 16.9829 24.8794 17.0087 24.8603C17.0394 24.8324 17.0669 24.8011 17.0908 24.7671C17.1256 24.7184 17.1579 24.6679 17.1874 24.6158L17.23 24.6365L17.0428 25.1141C16.931 25.1125 16.8439 25.1113 16.7814 25.1105C16.719 25.1097 16.6611 25.1093 16.6077 25.1093C16.4983 25.1093 16.3945 25.1101 16.2965 25.1117C16.1985 25.1133 16.1037 25.1158 16.0122 25.1193Z" fill="#FAFAFA"/>
<path id="Vector_25" d="M17.4471 25.1763L17.4228 25.1241C17.6056 25.0381 17.7729 24.9225 17.9181 24.7819C18.039 24.6615 18.13 24.5143 18.1836 24.3523C18.1264 24.3865 18.0651 24.4136 18.0013 24.433C17.9433 24.4503 17.8832 24.4591 17.8227 24.4592C17.7539 24.4626 17.6852 24.4515 17.621 24.4266C17.5568 24.4018 17.4985 24.3637 17.4499 24.3149C17.4014 24.2661 17.3636 24.2076 17.339 24.1433C17.3144 24.079 17.3037 24.0102 17.3073 23.9415C17.3046 23.8625 17.3182 23.7839 17.3474 23.7105C17.3766 23.6372 17.4207 23.5707 17.477 23.5153C17.5984 23.4084 17.7547 23.3495 17.9165 23.3495C18.0783 23.3495 18.2345 23.4084 18.356 23.5153C18.4119 23.5768 18.455 23.6488 18.4827 23.7272C18.5105 23.8056 18.5223 23.8887 18.5176 23.9717C18.5181 24.2384 18.4176 24.4953 18.2363 24.6909C18.021 24.92 17.7486 25.0875 17.4471 25.1763ZM18.2091 24.2684C18.2219 24.2176 18.2319 24.166 18.239 24.1141C18.2457 24.0645 18.2492 24.0146 18.2493 23.9646C18.2564 23.8249 18.224 23.6861 18.1557 23.5641C18.1307 23.519 18.094 23.4815 18.0495 23.4555C18.005 23.4295 17.9542 23.416 17.9027 23.4164C17.8543 23.4151 17.8063 23.4255 17.7628 23.4468C17.7193 23.468 17.6816 23.4995 17.6529 23.5386C17.5874 23.6417 17.5547 23.7622 17.5591 23.8843C17.5636 24.0063 17.605 24.1242 17.6779 24.2222C17.7155 24.2667 17.7627 24.3022 17.8159 24.326C17.8692 24.3498 17.9271 24.3613 17.9853 24.3596C18.0269 24.3601 18.0683 24.3525 18.1069 24.3371C18.1451 24.321 18.1798 24.2977 18.2091 24.2684Z" fill="#FAFAFA"/>
</g>
<path id="Vector_26" d="M12.7753 24.2836H10.9775V24.3502H12.7753V24.2836Z" fill="#FAFAFA"/>
<path id="Vector_27" d="M21.2548 24.2836H19.457V24.3502H21.2548V24.2836Z" fill="#FAFAFA"/>
<g id="Group_4">
<path id="Vector_28" d="M11.0048 22.8393L11.0039 22.8042C11.0734 22.8074 11.1418 22.7864 11.1977 22.745C11.2299 22.7118 11.2459 22.6341 11.2459 22.5119V21.8249C11.2459 21.7012 11.2304 21.6221 11.1993 21.5876C11.1474 21.5448 11.0821 21.5217 11.0149 21.5225V21.4874C11.076 21.4874 11.1608 21.4881 11.2692 21.4894C11.3776 21.4906 11.4555 21.4913 11.5027 21.4912C11.584 21.4912 11.6674 21.4909 11.7527 21.4903C11.8381 21.4897 11.9369 21.4887 12.0491 21.4874L12.0198 21.8031H11.9914C11.9942 21.7649 11.9883 21.7266 11.9743 21.691C11.9603 21.6553 11.9386 21.6232 11.9106 21.5971C11.8605 21.5593 11.7633 21.5404 11.619 21.5404H11.428V22.1283H11.6501C11.722 22.1339 11.7939 22.1174 11.8562 22.0811C11.879 22.0629 11.8973 22.0397 11.9096 22.0133C11.9219 21.9869 11.9279 21.958 11.9272 21.9289L11.9583 21.9299C11.9552 21.9916 11.9528 22.0498 11.9513 22.1043C11.9497 22.1588 11.9489 22.2116 11.9489 22.2626C11.9489 22.3055 11.949 22.3379 11.9494 22.3599C11.9494 22.382 11.9498 22.4025 11.9498 22.4214H11.9215C11.9244 22.3918 11.9203 22.362 11.9097 22.3342C11.899 22.3065 11.882 22.2816 11.86 22.2616C11.7989 22.2241 11.7273 22.2072 11.6559 22.2134H11.428V22.5021C11.428 22.62 11.447 22.6971 11.4848 22.7335C11.5226 22.7699 11.601 22.7934 11.7201 22.804V22.8391H11.7088C11.5487 22.8365 11.4299 22.8353 11.3524 22.8353C11.3095 22.8353 11.2637 22.8356 11.2149 22.8362L11.0048 22.8393Z" fill="#FAFAFA"/>
<path id="Vector_29" d="M12.158 22.1577C12.1537 22.0645 12.1693 21.9715 12.2037 21.8848C12.2382 21.7981 12.2907 21.7197 12.3577 21.6548C12.5041 21.5245 12.6957 21.457 12.8914 21.4667C12.9875 21.4621 13.0835 21.4769 13.1738 21.5103C13.264 21.5437 13.3465 21.5949 13.4165 21.6609C13.4831 21.7289 13.5349 21.8098 13.5689 21.8987C13.6028 21.9876 13.618 22.0825 13.6136 22.1776C13.6175 22.2702 13.6016 22.3626 13.567 22.4486C13.5323 22.5345 13.4797 22.6122 13.4127 22.6762C13.2667 22.8064 13.0754 22.8742 12.88 22.8648C12.784 22.8694 12.688 22.8546 12.5979 22.8214C12.5077 22.7883 12.425 22.7373 12.3549 22.6717C12.2884 22.6042 12.2366 22.5237 12.2027 22.4353C12.1688 22.3468 12.1536 22.2523 12.158 22.1577ZM12.3886 22.1303C12.381 22.3042 12.4315 22.4757 12.5323 22.6176C12.5735 22.6765 12.6284 22.7244 12.6924 22.7573C12.7563 22.7901 12.8272 22.8069 12.8991 22.8062C12.9669 22.8082 13.0342 22.7941 13.0955 22.765C13.1568 22.7359 13.2104 22.6927 13.2517 22.6388C13.346 22.5098 13.393 22.3523 13.3849 22.1927C13.3852 22.1122 13.3747 22.0321 13.3537 21.9545C13.3351 21.883 13.3051 21.815 13.2649 21.7531C13.2209 21.6825 13.1612 21.623 13.0905 21.5792C12.9978 21.5277 12.8899 21.5105 12.7858 21.5307C12.6817 21.551 12.588 21.6073 12.5214 21.6898C12.4279 21.817 12.381 21.9726 12.3886 22.1303Z" fill="#FAFAFA"/>
<path id="Vector_30" d="M13.8632 22.3206V21.8238C13.8652 21.7666 13.8616 21.7093 13.8523 21.6528C13.8471 21.6267 13.8333 21.6031 13.8131 21.5857C13.7887 21.5669 13.7612 21.5527 13.7318 21.5436C13.6964 21.5332 13.6599 21.527 13.623 21.5253V21.4903C13.664 21.4916 13.7078 21.4925 13.7544 21.4931C13.801 21.4937 13.8716 21.494 13.9662 21.4941C14.062 21.4941 14.1336 21.4938 14.1812 21.4931C14.2288 21.4924 14.2732 21.4915 14.3144 21.4903L14.3153 21.5253C14.2386 21.5188 14.1622 21.5414 14.1013 21.5886C14.0644 21.6276 14.0459 21.7053 14.0459 21.8217V22.3015C14.0437 22.3749 14.0508 22.4482 14.0672 22.5198C14.08 22.5681 14.1045 22.6126 14.1386 22.6492C14.1797 22.6918 14.2302 22.7241 14.286 22.7436C14.3507 22.7665 14.4189 22.7778 14.4874 22.7769C14.5669 22.7801 14.6459 22.7626 14.7166 22.7263C14.7798 22.6885 14.8296 22.6319 14.8589 22.5643C14.88 22.513 14.8926 22.4586 14.8962 22.4033C14.9035 22.3331 14.9071 22.2212 14.9071 22.0675C14.9091 21.9631 14.9052 21.8587 14.8953 21.7548C14.8916 21.709 14.878 21.6645 14.8554 21.6244C14.8322 21.5913 14.7998 21.5658 14.7621 21.5512C14.7133 21.5335 14.6618 21.5247 14.61 21.5252V21.4902C14.6446 21.4915 14.6815 21.4925 14.7206 21.493C14.7597 21.4936 14.8189 21.4939 14.8982 21.494C14.9781 21.494 15.0379 21.4937 15.0774 21.493C15.1169 21.4924 15.1533 21.4914 15.1866 21.4902V21.5252H15.1828C15.1508 21.5222 15.1187 21.529 15.0906 21.5447C15.0626 21.5604 15.04 21.5843 15.0259 21.6131C14.9975 21.6716 14.9833 21.8193 14.9833 22.0561C14.9833 22.0763 14.983 22.1065 14.9824 22.1468C14.9799 22.3659 14.9616 22.5148 14.9275 22.5935C14.8895 22.6832 14.8208 22.7564 14.7338 22.8C14.6289 22.8501 14.5134 22.8742 14.3973 22.8703C14.3034 22.8726 14.2099 22.8578 14.1212 22.8269C14.0506 22.8021 13.9888 22.757 13.9435 22.6974C13.9144 22.6569 13.8937 22.6109 13.8826 22.5623C13.8675 22.4827 13.861 22.4016 13.8632 22.3206Z" fill="#FAFAFA"/>
<path id="Vector_31" d="M15.2785 22.8393L15.2776 22.8042C15.317 22.8066 15.3564 22.7989 15.392 22.7818C15.4277 22.7648 15.4584 22.7389 15.4813 22.7068C15.5175 22.6468 15.5356 22.5228 15.5356 22.3349V21.9635C15.5356 21.9465 15.5356 21.924 15.5365 21.8957C15.5375 21.8675 15.5375 21.8476 15.5375 21.8363C15.5394 21.7885 15.533 21.7406 15.5186 21.6949C15.5051 21.6603 15.4837 21.6294 15.4562 21.6044C15.4303 21.581 15.4004 21.5626 15.3678 21.5502C15.331 21.5362 15.2923 21.5278 15.2529 21.5253V21.4903C15.2738 21.4903 15.304 21.4909 15.3437 21.4922C15.3834 21.4934 15.4124 21.494 15.4307 21.4941C15.4496 21.4941 15.477 21.4935 15.5129 21.4922C15.5488 21.4909 15.575 21.4903 15.5914 21.4903L16.5594 22.5253V22.0795C16.562 21.9665 16.5574 21.8535 16.5456 21.7411C16.541 21.6942 16.5243 21.6494 16.497 21.611C16.4752 21.5842 16.4464 21.564 16.4138 21.5526C16.3709 21.5373 16.3261 21.5281 16.2806 21.5253V21.4903C16.3147 21.4916 16.3512 21.4925 16.3903 21.4931C16.4294 21.4937 16.4864 21.4941 16.5614 21.4941C16.6364 21.4941 16.6907 21.4941 16.7264 21.4931C16.762 21.4921 16.7946 21.4916 16.8242 21.4903V21.5253H16.8091C16.777 21.5243 16.7455 21.5339 16.7194 21.5527C16.6933 21.5714 16.6741 21.5982 16.6648 21.6289C16.6304 21.7544 16.6166 21.8846 16.6237 22.0145V22.4273C16.6237 22.5235 16.6245 22.6087 16.6261 22.683C16.6277 22.7574 16.6298 22.8262 16.6323 22.8895H16.6209C16.5819 22.8443 16.5395 22.7956 16.4938 22.7433C16.4481 22.6911 16.4228 22.6621 16.4177 22.6564L15.5991 21.7901V22.1718C15.5991 22.3596 15.6028 22.4862 15.61 22.5514C15.6126 22.6001 15.6254 22.6477 15.6474 22.6912C15.6667 22.7207 15.6943 22.7439 15.7267 22.7578C15.7763 22.7793 15.8284 22.7945 15.8818 22.803V22.839H15.8761C15.7429 22.8365 15.6437 22.8352 15.5784 22.8352C15.5418 22.8352 15.5024 22.8355 15.4602 22.8361C15.4179 22.8368 15.3573 22.8378 15.2785 22.8393Z" fill="#FAFAFA"/>
<path id="Vector_32" d="M16.9189 22.8393V22.8043C16.9914 22.8058 17.0624 22.7834 17.1208 22.7405C17.1622 22.6822 17.1806 22.6107 17.1723 22.5396V21.7748C17.1794 21.7098 17.1623 21.6444 17.1241 21.5912C17.0714 21.5499 17.0067 21.5268 16.9398 21.5253V21.4903C17.0482 21.489 17.1635 21.4873 17.2857 21.4851C17.4079 21.483 17.4772 21.4819 17.4937 21.4818C17.776 21.4818 17.9972 21.5433 18.1573 21.6661C18.2352 21.7246 18.2977 21.8011 18.3395 21.889C18.3814 21.9769 18.4012 22.0737 18.3974 22.171C18.4014 22.2656 18.3826 22.3599 18.3428 22.4458C18.3029 22.5317 18.243 22.6068 18.1682 22.6649C18.0153 22.7848 17.8047 22.8447 17.5362 22.8447C17.4846 22.8447 17.3893 22.8439 17.2503 22.8424C17.1113 22.8408 17.0009 22.8398 16.9189 22.8393ZM17.3585 22.4848C17.3585 22.6102 17.3786 22.6936 17.419 22.7348C17.4593 22.7761 17.5346 22.7967 17.6449 22.7968C17.7152 22.7988 17.7851 22.7852 17.8495 22.7569C17.9139 22.7286 17.9713 22.6864 18.0173 22.6332C18.1212 22.4975 18.1721 22.3285 18.1603 22.158C18.1486 21.9874 18.0751 21.827 17.9535 21.7068C17.8146 21.5864 17.6219 21.5263 17.3755 21.5263H17.3585V22.4848Z" fill="#FAFAFA"/>
<path id="Vector_33" d="M18.4199 22.8393V22.8042C18.4931 22.8023 18.5643 22.7795 18.625 22.7386C18.6584 22.7075 18.6751 22.6405 18.6751 22.5377V21.7956C18.6751 21.6871 18.6586 21.6154 18.6255 21.5805C18.5732 21.5388 18.5074 21.5182 18.4407 21.5225V21.4874C18.5037 21.489 18.5708 21.49 18.6421 21.4905C18.7133 21.491 18.8167 21.4912 18.9521 21.4912C19.1103 21.4912 19.2261 21.491 19.2995 21.4905C19.3729 21.49 19.4389 21.4893 19.4975 21.4884C19.4919 21.5312 19.487 21.5772 19.4829 21.6264C19.4787 21.6756 19.4748 21.732 19.4711 21.7956H19.4417C19.4431 21.7588 19.4366 21.7221 19.4228 21.688C19.4089 21.6539 19.388 21.623 19.3614 21.5976C19.2857 21.5536 19.1982 21.5342 19.111 21.5423H18.8576V22.1H19.0523C19.1282 22.1065 19.2044 22.0924 19.273 22.0593C19.2956 22.0416 19.3142 22.0193 19.3276 21.9939C19.3411 21.9685 19.349 21.9406 19.351 21.9119H19.3822C19.3822 21.9472 19.3808 22.0027 19.3779 22.0784C19.3751 22.1541 19.3737 22.213 19.3737 22.2552V22.3667H19.3454C19.3453 22.3392 19.3387 22.312 19.3262 22.2875C19.3138 22.2629 19.2957 22.2417 19.2735 22.2253C19.2051 22.1931 19.1295 22.1793 19.0542 22.1854H18.8576V22.5295C18.8576 22.6348 18.879 22.7041 18.9218 22.7375C18.9647 22.7709 19.0482 22.7876 19.1724 22.7876C19.2693 22.7934 19.365 22.7635 19.4413 22.7034C19.513 22.6338 19.5588 22.5418 19.5712 22.4426L19.6025 22.4463C19.599 22.5166 19.591 22.5865 19.5784 22.6557C19.5668 22.7195 19.5502 22.7822 19.5287 22.8434C19.4374 22.8409 19.3375 22.839 19.229 22.8377C19.1205 22.8364 19.0024 22.8358 18.8746 22.8358C18.7555 22.8358 18.6641 22.8361 18.6004 22.8367C18.5367 22.8374 18.4765 22.8382 18.4199 22.8393Z" fill="#FAFAFA"/>
<path id="Vector_34" d="M19.6875 22.8393V22.8043C19.76 22.8058 19.8309 22.7834 19.8893 22.7405C19.9308 22.6822 19.9492 22.6107 19.9409 22.5396V21.7748C19.948 21.7098 19.9308 21.6444 19.8926 21.5912C19.8399 21.5499 19.7752 21.5268 19.7083 21.5253V21.4903C19.8166 21.489 19.9321 21.4873 20.0546 21.4851C20.177 21.483 20.2463 21.4819 20.2625 21.4818C20.5448 21.4818 20.766 21.5433 20.9261 21.6661C21.004 21.7246 21.0665 21.8011 21.1083 21.889C21.1501 21.9769 21.17 22.0737 21.1662 22.171C21.1701 22.2656 21.1514 22.3598 21.1115 22.4458C21.0717 22.5317 21.0118 22.6068 20.937 22.6649C20.7842 22.7848 20.5735 22.8447 20.305 22.8447C20.2533 22.8447 20.158 22.8439 20.0191 22.8424C19.8802 22.8408 19.7697 22.8398 19.6875 22.8393ZM20.127 22.4848C20.127 22.6102 20.1472 22.6936 20.1875 22.7348C20.2279 22.7761 20.3032 22.7967 20.4135 22.7968C20.4838 22.7988 20.5537 22.7852 20.6181 22.7569C20.6826 22.7286 20.7399 22.6864 20.786 22.6332C20.8898 22.4974 20.9406 22.3285 20.9289 22.158C20.9171 21.9875 20.8436 21.8271 20.7222 21.7068C20.5832 21.5864 20.3905 21.5263 20.1441 21.5263H20.127V22.4848Z" fill="#FAFAFA"/>
</g>
</g>
<path id="Vector_35" d="M11.5989 18.9602C11.5709 18.9343 11.5554 18.9192 11.547 18.9104C11.5393 18.9047 11.53 18.8977 11.5187 18.8892C11.4442 18.8326 11.3727 18.7771 11.3037 18.7161L4.2916 27.302L4.29693 27.3074C4.25456 27.3456 4.22122 27.3928 4.19934 27.4456C4.17745 27.4983 4.16757 27.5553 4.17039 27.6123C4.17322 27.6693 4.1887 27.725 4.21569 27.7753C4.24269 27.8256 4.28053 27.8693 4.32648 27.9032C4.37244 27.9371 4.42535 27.9603 4.48139 27.9713C4.53744 27.9822 4.59521 27.9805 4.65052 27.9664C4.70584 27.9522 4.75732 27.926 4.80124 27.8895C4.84516 27.853 4.88041 27.8072 4.90446 27.7554L11.9676 19.1414C11.8295 19.1186 11.7012 19.0556 11.5989 18.9602Z" fill="#FAFAFA"/>
<path id="Vector_36" d="M11.2745 8.26972C11.3726 8.17479 11.4967 8.11115 11.631 8.08686L5.02672 0L4.43164 0.513898L11.0891 8.63339C11.1096 8.4952 11.1747 8.36749 11.2745 8.26972Z" fill="#FAFAFA"/>
<path id="Vector_37" d="M20.5044 8.32386C20.6016 8.41754 20.666 8.53997 20.6883 8.67308L27.3562 0.541004L26.7611 0.0270386L20.1357 8.13973C20.2742 8.16314 20.4025 8.22724 20.5044 8.32386Z" fill="#FAFAFA"/>
<path id="Vector_38" d="M27.4276 27.3074L27.433 27.302L20.4486 18.7498C20.4351 18.7945 20.4165 18.8375 20.3933 18.8779C20.3438 18.9666 20.2734 19.0418 20.1882 19.0971C20.103 19.1524 20.0056 19.1861 19.9044 19.1952C19.8798 19.2078 19.8543 19.2188 19.8281 19.228L26.8204 27.7554C26.8444 27.8072 26.8797 27.853 26.9236 27.8895C26.9675 27.926 27.019 27.9523 27.0743 27.9665C27.1297 27.9806 27.1874 27.9823 27.2435 27.9714C27.2995 27.9604 27.3525 27.9372 27.3984 27.9033C27.4444 27.8694 27.4822 27.8257 27.5092 27.7754C27.5362 27.725 27.5517 27.6693 27.5545 27.6123C27.5573 27.5553 27.5474 27.4983 27.5255 27.4456C27.5036 27.3928 27.4703 27.3456 27.4279 27.3074H27.4276Z" fill="#FAFAFA"/>
<g id="Group_5">
<path id="Vector_39" d="M48.6099 18.5787C48.6099 19.9964 48.6676 20.9953 48.783 21.5754C48.8985 22.1555 49.0945 22.579 49.371 22.8457C49.6661 23.122 50.0628 23.3546 50.5609 23.5433C51.059 23.732 51.6954 23.8862 52.4702 24.0058L52.4564 24.5177C51.0635 24.4995 50.0028 24.4856 49.2742 24.4762C48.5455 24.4668 47.8722 24.4622 47.2542 24.4624C46.1012 24.4624 44.3808 24.4808 42.0932 24.5177H42.0102V24.0058C42.7941 23.8862 43.4375 23.7321 43.9403 23.5433C44.443 23.3545 44.8374 23.122 45.1232 22.8457C45.4091 22.579 45.6097 22.1556 45.7251 21.5754C45.8404 20.9953 45.8981 19.9964 45.8982 18.5787V5.72895H43.9337C42.1628 5.72895 40.8714 6.00104 40.0597 6.54524C39.2481 7.08944 38.6624 8.0441 38.3026 9.40921L37.8184 9.32617L38.3578 3.86115H38.6898L39.5476 4.77427C40.4331 4.77427 41.7383 4.77889 43.4633 4.78812C45.1882 4.79735 46.4795 4.8019 47.3372 4.80177C48.1857 4.80177 49.4586 4.79715 51.1558 4.78792C52.853 4.77869 54.1213 4.77407 54.9606 4.77407L55.901 3.86115H56.1224L56.6066 9.38171L56.1501 9.47827C55.8181 8.13207 55.2393 7.17064 54.4137 6.59399C53.5882 6.01734 52.3638 5.72899 50.7405 5.72895H48.6096L48.6099 18.5787Z" fill="#FAFAFA"/>
<path id="Vector_40" d="M56.7443 24.5177L56.7305 24.0058C57.5883 23.969 58.1578 23.7941 58.4392 23.4812C58.7205 23.1683 58.8612 22.354 58.8612 21.0385L58.8335 7.99826C58.8335 7.41717 58.7804 6.97679 58.6744 6.67712C58.5611 6.36658 58.3734 6.08853 58.1279 5.86728L57.3945 5.2447V4.99565L60.8673 3.58447L61.1578 3.72299L60.9918 13.2684C61.9603 12.614 62.8551 12.1209 63.6759 11.7889C64.4968 11.4569 65.2255 11.291 65.862 11.2911C67.1809 11.2911 68.1448 11.664 68.7536 12.4098C69.3625 13.1557 69.6899 14.3712 69.736 16.0563L69.8605 21.3837C69.8972 22.5247 70.0494 23.2263 70.317 23.4885C70.5847 23.7508 71.1289 23.9233 71.9496 24.006V24.5179C71.5989 24.4997 71.2046 24.4858 70.7667 24.4764C70.3288 24.467 69.6578 24.4624 68.7536 24.4626C67.8496 24.4626 67.1624 24.4672 66.6921 24.4764C66.2218 24.4857 65.7883 24.4995 65.3916 24.5179L65.3777 24.006C66.2539 23.9142 66.8373 23.721 67.1279 23.4267C67.4185 23.1323 67.5638 22.5251 67.5638 21.6051C67.5638 21.5315 67.5591 21.3934 67.5499 21.1909C67.5407 20.9883 67.536 20.8273 67.536 20.7078L67.4807 17.4229C67.4437 15.8126 67.1463 14.6465 66.5884 13.9246C66.0304 13.2026 65.1565 12.8414 63.9665 12.8409C63.4894 12.8435 63.0156 12.9203 62.5622 13.0688C62.0314 13.2464 61.5231 13.4849 61.0472 13.7794V21.0114C61.0472 22.226 61.197 23.0196 61.4968 23.3923C61.7966 23.765 62.3938 23.9697 63.2885 24.0064L63.2747 24.5183C62.8873 24.5 62.463 24.4862 62.0018 24.4768C61.5407 24.4674 60.8535 24.4627 59.9403 24.4629C59.0549 24.4629 58.3907 24.4675 57.948 24.4768C57.5052 24.486 57.104 24.4997 56.7443 24.5177Z" fill="#FAFAFA"/>
<path id="Vector_41" d="M82.9264 21.1142L83.3276 21.4601C82.5989 22.5212 81.7734 23.3236 80.851 23.8675C79.9432 24.4078 78.9051 24.69 77.8487 24.6837C76.1699 24.6837 74.7586 24.0681 73.615 22.8369C72.4713 21.6056 71.8995 20.0675 71.8994 18.2226C71.8994 16.2856 72.5105 14.646 73.7326 13.3039C74.9548 11.9617 76.4421 11.2907 78.1944 11.2909C79.6056 11.2909 80.7425 11.6875 81.6049 12.4808C82.4673 13.274 82.9354 14.3578 83.0092 15.7321C81.4319 15.6768 79.9354 15.6352 78.5196 15.6076C77.1037 15.5799 75.7594 15.5661 74.4864 15.5661C74.4225 15.8209 74.3763 16.0798 74.3481 16.3409C74.3198 16.6121 74.3059 16.8846 74.3066 17.1572C74.3066 18.8083 74.7862 20.178 75.7455 21.2664C76.7047 22.3547 77.8992 22.8989 79.3289 22.899C80.0144 22.9046 80.6917 22.7507 81.3074 22.4495C81.9398 22.1306 82.493 21.6743 82.9264 21.1142ZM80.1454 14.8605C79.9608 13.9197 79.6518 13.1979 79.2185 12.6951C78.7851 12.1923 78.2547 11.941 77.6273 11.9412C76.9079 11.9412 76.2737 12.2156 75.7249 12.7645C75.1761 13.3134 74.8002 14.0582 74.5974 14.9989L80.1454 14.8605Z" fill="#FAFAFA"/>
<path id="Vector_42" d="M112.521 22.307V22.818C110.953 23.5275 109.463 24.055 108.052 24.4006C106.717 24.7366 105.347 24.9106 103.97 24.919C100.567 24.919 97.8322 23.9988 95.7662 22.1586C93.7001 20.3184 92.6671 17.8949 92.667 14.8882C92.667 13.3663 92.9483 11.9711 93.511 10.7027C94.0737 9.43437 94.9176 8.30673 96.0429 7.31982C97.1371 6.35726 98.4083 5.61706 99.7855 5.14056C101.192 4.64742 102.721 4.40073 104.372 4.40051C105.517 4.40296 106.66 4.50014 107.789 4.69106C108.981 4.89205 110.156 5.18344 111.304 5.56269C111.257 6.31919 111.218 7.11478 111.186 7.94945C111.154 8.78413 111.128 9.67648 111.11 10.6265H110.681C110.257 8.83736 109.475 7.46998 108.336 6.52436C107.197 5.57874 105.751 5.10607 103.998 5.10633C101.582 5.10633 99.6308 5.91577 98.1458 7.53465C96.6608 9.15352 95.9183 11.2912 95.9183 13.9476C95.9128 15.237 96.1498 16.516 96.617 17.7179C97.0829 18.9128 97.7706 20.0089 98.6438 20.9483C99.5294 21.9077 100.618 22.6479 101.909 23.1691C103.234 23.6965 104.648 23.9619 106.074 23.9507C106.996 23.9507 107.612 23.808 107.921 23.5227C108.23 23.2374 108.384 22.625 108.384 21.6855V18.9782C108.384 17.855 108.117 17.0608 107.582 16.5956C107.047 16.1303 106.051 15.8379 104.593 15.7183V15.2064C105.349 15.2211 106.09 15.234 106.814 15.2449C107.538 15.2559 108.26 15.2615 108.979 15.2617C109.717 15.2617 110.443 15.2571 111.158 15.2479C111.873 15.2387 112.572 15.2249 113.254 15.2064L113.268 15.7183C112.41 15.8289 111.836 16.0753 111.546 16.4574C111.255 16.8396 111.11 17.6476 111.11 18.8814V22.307L112.521 22.307Z" fill="#FAFAFA"/>
<path id="Vector_43" d="M116.626 16.927V9.65503C116.626 8.42013 116.573 7.58607 116.466 7.15286C116.36 6.71965 116.169 6.39239 115.892 6.17108C115.536 5.89601 115.133 5.6876 114.702 5.55589C114.185 5.40179 113.651 5.31122 113.111 5.28619V4.77429C113.711 4.79285 114.352 4.80668 115.034 4.81578C115.717 4.82488 116.75 4.8295 118.134 4.82963C119.536 4.82963 120.585 4.82501 121.281 4.81578C121.978 4.80655 122.626 4.79272 123.225 4.77429L123.239 5.28619C121.69 5.33241 120.645 5.64122 120.105 6.21263C119.566 6.78405 119.296 7.9223 119.296 9.62739V16.6506C119.296 18.0333 119.4 19.0978 119.607 19.8442C119.793 20.5522 120.152 21.2029 120.652 21.7379C121.214 22.3373 121.934 22.7982 122.81 23.1207C123.687 23.4432 124.669 23.6045 125.757 23.6046C127.122 23.6046 128.24 23.3582 129.112 22.8654C129.984 22.3726 130.678 21.5822 131.195 20.4942C131.453 19.9506 131.635 19.1648 131.741 18.1368C131.847 17.1089 131.9 15.4707 131.9 13.2223C131.9 11.0289 131.842 9.50364 131.727 8.64654C131.611 7.78945 131.415 7.15339 131.139 6.73839C130.799 6.25298 130.322 5.88001 129.769 5.66717C129.188 5.43223 128.445 5.30544 127.542 5.28679V4.77429C128.049 4.79285 128.588 4.80668 129.16 4.81578C129.732 4.82488 130.599 4.8295 131.761 4.82963C132.933 4.82963 133.807 4.82501 134.383 4.81578C134.959 4.80655 135.492 4.79272 135.981 4.77429V5.28619H135.926C134.809 5.28619 134.044 5.71481 133.629 6.57204C133.214 7.42927 133.006 9.59077 133.006 13.0565C133.006 13.3512 133.001 13.7936 132.993 14.3836C132.955 17.5914 132.688 19.7713 132.19 20.9234C131.618 22.2509 130.672 23.2578 129.353 23.9443C128.034 24.6308 126.393 24.9741 124.428 24.9744C122.851 24.9744 121.504 24.7623 120.388 24.3382C119.272 23.9141 118.405 23.2826 117.787 22.4439C117.362 21.8503 117.058 21.1783 116.895 20.4668C116.715 19.72 116.626 18.5401 116.626 16.927Z" fill="#FAFAFA"/>
<path id="Vector_44" d="M137.042 24.5177V24.0058C138.481 23.9231 139.454 23.6263 139.961 23.1153C140.469 22.6044 140.722 21.4701 140.722 19.7124V9.56586C140.722 7.81726 140.473 6.6898 139.975 6.18347C139.477 5.67714 138.499 5.37805 137.042 5.28619V4.77429C137.614 4.77429 138.469 4.78353 139.609 4.80199C140.748 4.82046 141.599 4.82967 142.161 4.82963C142.724 4.82963 143.561 4.82042 144.672 4.80199C145.784 4.78357 146.612 4.77434 147.156 4.77429V5.28619C145.698 5.37836 144.721 5.68207 144.223 6.19732C143.725 6.71257 143.476 7.83542 143.476 9.56586V19.7124C143.476 21.4612 143.727 22.5955 144.23 23.1153C144.733 23.635 145.708 23.9318 147.156 24.0058L147.142 24.5177C145.74 24.49 144.695 24.4739 144.008 24.4694C143.321 24.4648 142.678 24.4625 142.078 24.4623C141.479 24.4623 140.835 24.4647 140.148 24.4694C139.461 24.4741 138.425 24.4902 137.042 24.5177Z" fill="#FAFAFA"/>
<path id="Vector_45" d="M148.279 24.5177V24.0058C149.746 23.8869 150.731 23.5755 151.233 23.0717C151.736 22.5679 151.987 21.588 151.987 20.1319V8.93884C151.987 7.63389 151.752 6.73801 151.281 6.25122C150.811 5.76442 149.911 5.44275 148.583 5.28622V4.77432C150.17 4.75607 151.858 4.73065 153.647 4.69807C155.437 4.66548 156.451 4.64939 156.691 4.64979C160.823 4.64979 164.061 5.5491 166.404 7.34774C168.747 9.14637 169.918 11.6091 169.918 14.736C169.918 17.7984 168.8 20.208 166.563 21.965C164.326 23.7219 161.243 24.6005 157.314 24.6008C156.557 24.6008 155.162 24.5892 153.128 24.566C151.095 24.5429 149.478 24.5268 148.279 24.5177ZM154.713 19.3294C154.713 21.1651 155.008 22.3849 155.599 22.9888C156.189 23.5926 157.291 23.8948 158.905 23.8952C161.128 23.8952 162.945 23.0973 164.356 21.5016C165.768 19.9059 166.473 17.8214 166.473 15.2479C166.473 12.1396 165.456 9.70451 163.422 7.94268C161.388 6.18085 158.568 5.29998 154.962 5.30007H154.713L154.713 19.3294Z" fill="#FAFAFA"/>
<path id="Vector_46" d="M171.721 14.5423C171.721 11.4708 172.696 9.01722 174.647 7.18169C176.598 5.34617 179.201 4.42841 182.457 4.42841C185.658 4.42841 188.219 5.37609 190.143 7.27146C192.066 9.16683 193.028 11.6873 193.028 14.8328C193.028 17.8584 192.048 20.2911 190.087 22.131C188.127 23.9708 185.529 24.891 182.291 24.8913C179.09 24.8913 176.528 23.9505 174.606 22.0688C172.683 20.1872 171.721 17.6783 171.721 14.5423ZM175.097 14.141C175.097 17.0559 175.798 19.4333 177.2 21.2731C178.602 23.1129 180.391 24.0332 182.568 24.0339C184.707 24.0339 186.428 23.2175 187.729 21.5849C189.029 19.9523 189.68 17.7755 189.68 15.0545C189.684 13.8772 189.53 12.7045 189.223 11.5679C188.919 10.4519 188.485 9.46961 187.923 8.6209C187.166 7.47732 186.315 6.62875 185.37 6.07518C184.425 5.5218 183.352 5.24508 182.153 5.24504C180.041 5.24504 178.337 6.06133 177.041 7.69393C175.745 9.32652 175.097 11.4755 175.097 14.141H175.097Z" fill="#FAFAFA"/>
<path id="Vector_47" d="M192.962 24.5177L192.949 24.0058C194.406 23.9322 195.4 23.4563 195.93 22.5781C196.46 21.7 196.726 19.8859 196.726 17.136V11.7008C196.726 11.4527 196.73 11.1217 196.74 10.7079C196.749 10.2941 196.753 10.0044 196.753 9.83862C196.753 8.94668 196.661 8.25695 196.477 7.76945C196.279 7.26316 195.966 6.80976 195.564 6.44504C195.185 6.10273 194.746 5.83382 194.27 5.65205C193.731 5.44645 193.164 5.32318 192.589 5.28639V4.77429C192.893 4.77429 193.336 4.78353 193.917 4.80199C194.498 4.82046 194.922 4.82967 195.19 4.82963C195.467 4.82963 195.868 4.82042 196.394 4.80199C196.919 4.78357 197.302 4.77434 197.542 4.77429L211.71 19.9225V13.3974C211.71 10.9512 211.643 9.30049 211.509 8.44517C211.375 7.58984 211.138 6.95537 210.796 6.54174C210.51 6.17374 210.104 5.88859 209.579 5.68628C209.053 5.48397 208.403 5.35061 207.628 5.28619V4.77429C208.126 4.79285 208.661 4.80668 209.233 4.81578C209.804 4.82488 210.639 4.8295 211.737 4.82963C212.825 4.82963 213.63 4.82501 214.151 4.81578C214.673 4.80655 215.15 4.79272 215.583 4.77429V5.28619H215.362C214.356 5.28619 213.653 5.79203 213.252 6.80371C212.85 7.8154 212.65 9.69607 212.65 12.4457V18.4877C212.65 19.8951 212.661 21.1426 212.685 22.2303C212.708 23.3179 212.738 24.3248 212.774 25.2508H212.608C212.036 24.589 211.416 23.8762 210.748 23.1122C210.079 22.3483 209.708 21.9241 209.634 21.8399L197.653 9.16257V14.7497C197.653 17.4998 197.706 19.3506 197.812 20.3022C197.918 21.2538 198.1 21.9367 198.358 22.3508C198.598 22.7459 198.985 23.0723 199.52 23.3301C200.056 23.5879 200.812 23.8086 201.79 23.9922V24.5183H201.707C199.76 24.4815 198.307 24.4631 197.348 24.4629C196.813 24.4629 196.237 24.4675 195.619 24.4768C195.001 24.486 194.116 24.4997 192.962 24.5177Z" fill="#FAFAFA"/>
</g>
</g>
</svg>
