<?xml version="1.0" standalone="no"?>
<!DOCTYPE svg PUBLIC "-//W3C//DTD SVG 20010904//EN"
 "http://www.w3.org/TR/2001/REC-SVG-20010904/DTD/svg10.dtd">
<svg version="1.0" xmlns="http://www.w3.org/2000/svg"
 width="3751.000000pt" height="3751.000000pt" viewBox="0 0 3751.000000 3751.000000"
 preserveAspectRatio="xMidYMid meet">

<g transform="translate(0.000000,3751.000000) scale(0.100000,-0.100000)"
fill="#000000" stroke="none">
<path d="M0 18755 l0 -18755 18750 0 18750 0 0 18755 0 18755 -18750 0 -18750
0 0 -18755z m19160 11193 l0 -4133 4050 4050 4050 4050 0 -4342 0 -4343 1733
-2 1732 -3 0 -6200 0 -6200 -1732 -3 -1733 -2 -1 -4368 0 -4367 -4043 4048
c-2224 2226 -4046 4047 -4049 4047 -4 0 -7 -1966 -7 -4370 l0 -4370 -425 0
-425 0 0 4357 0 4358 -4035 -4035 -4035 -4035 0 4368 0 4367 -1730 0 -1730 0
0 6205 0 6205 1730 0 1730 0 0 4340 c0 2387 3 4340 8 4340 4 0 1819 -1815
4034 -4032 l4027 -4033 0 4118 1 4117 425 0 425 0 0 -4132z"/>
<path d="M11100 28540 l0 -3310 3306 0 3306 0 -3302 3310 c-1817 1821 -3304
3310 -3306 3310 -2 0 -4 -1489 -4 -3310z"/>
<path d="M23090 28535 l-3305 -3305 3308 0 3307 0 0 3305 c0 1818 -1 3305 -3
3305 -1 0 -1489 -1487 -3307 -3305z"/>
<path d="M7630 19025 l0 -5345 1305 0 1305 0 0 1603 0 1602 3336 3335 c1834
1834 3516 3518 3736 3743 l400 407 -5041 0 -5041 0 0 -5345z"/>
<path d="M23524 20628 l3736 -3742 0 -1603 0 -1603 1305 0 1305 0 0 5345 0
5345 -5041 0 -5041 0 3736 -3742z"/>
<path d="M19180 18572 l0 -5193 3610 -3612 3609 -3612 1 5194 0 5194 -3610
3611 -3610 3611 0 -5193z"/>
<path d="M14698 20136 l-3598 -3604 0 -5189 0 -5188 3605 3605 3605 3605 0
5187 c0 2854 -3 5188 -7 5188 -5 0 -1627 -1622 -3605 -3604z"/>
</g>
</svg>
