<svg width="24" height="24" viewBox="0 0 24 24" fill="none" xmlns="http://www.w3.org/2000/svg">
<g id="question-circle-fill">
<path id="Subtract" fill-rule="evenodd" clip-rule="evenodd" d="M24 12C24 18.6274 18.6274 24 12 24C5.37258 24 0 18.6274 0 12C0 5.37258 5.37258 0 12 0C18.6274 0 24 5.37258 24 12ZM8.12159 9.04907C7.98516 9.04907 7.8732 8.93935 7.87735 8.80298C7.95754 6.16459 10.077 5.25 12.0081 5.25C14.1028 5.25 16.0166 6.34497 16.0166 8.61108C16.0166 10.2297 15.0645 11.001 14.1504 11.696C13.0459 12.5339 12.6365 12.8481 12.6365 13.9241V14.2073C12.6365 14.3453 12.5246 14.4573 12.3865 14.4573H10.9217C10.7849 14.4573 10.6736 14.3474 10.6717 14.2107L10.6656 13.7622C10.6084 12.3721 11.4082 11.5151 12.4175 10.782C13.303 10.1155 13.8648 9.67749 13.8648 8.72534C13.8648 7.48755 12.9221 6.97339 11.8938 6.97339C10.6396 6.97339 9.95896 7.75173 9.867 8.79921C9.85492 8.93675 9.7443 9.04907 9.60623 9.04907H8.12159ZM11.732 18.7134C10.856 18.7134 10.218 18.123 10.218 17.3232C10.218 16.4949 10.856 15.9141 11.732 15.9141C12.646 15.9141 13.2744 16.4949 13.2744 17.3232C13.2744 18.123 12.646 18.7134 11.732 18.7134Z" fill="#6CD89D"/>
</g>
</svg>
